<?xml version="1.0" standalone="no"?>
<!DOCTYPE svg PUBLIC "-//W3C//DTD SVG 1.1//EN" "http://www.w3.org/Graphics/SVG/1.1/DTD/svg11.dtd">
<svg xmlns="http://www.w3.org/2000/svg" version="1.1" width="185" height="60">
<rect x="10" y="10" width="2" height="50" style="fill:rgb(0, 0, 0)" />
<rect x="12" y="10" width="1" height="50" style="fill:rgb(255, 255, 255)" />
<rect x="13" y="10" width="1" height="50" style="fill:rgb(0, 0, 0)" />
<rect x="14" y="10" width="2" height="50" style="fill:rgb(255, 255, 255)" />
<rect x="16" y="10" width="1" height="50" style="fill:rgb(0, 0, 0)" />
<rect x="17" y="10" width="4" height="50" style="fill:rgb(255, 255, 255)" />
<rect x="21" y="10" width="2" height="50" style="fill:rgb(0, 0, 0)" />
<rect x="23" y="10" width="1" height="50" style="fill:rgb(255, 255, 255)" />
<rect x="24" y="10" width="3" height="50" style="fill:rgb(0, 0, 0)" />
<rect x="27" y="10" width="1" height="50" style="fill:rgb(255, 255, 255)" />
<rect x="28" y="10" width="1" height="50" style="fill:rgb(0, 0, 0)" />
<rect x="29" y="10" width="3" height="50" style="fill:rgb(255, 255, 255)" />
<rect x="32" y="10" width="1" height="50" style="fill:rgb(0, 0, 0)" />
<rect x="33" y="10" width="2" height="50" style="fill:rgb(255, 255, 255)" />
<rect x="35" y="10" width="4" height="50" style="fill:rgb(0, 0, 0)" />
<rect x="39" y="10" width="1" height="50" style="fill:rgb(255, 255, 255)" />
<rect x="40" y="10" width="1" height="50" style="fill:rgb(0, 0, 0)" />
<rect x="41" y="10" width="2" height="50" style="fill:rgb(255, 255, 255)" />
<rect x="43" y="10" width="1" height="50" style="fill:rgb(0, 0, 0)" />
<rect x="44" y="10" width="2" height="50" style="fill:rgb(255, 255, 255)" />
<rect x="46" y="10" width="4" height="50" style="fill:rgb(0, 0, 0)" />
<rect x="50" y="10" width="2" height="50" style="fill:rgb(255, 255, 255)" />
<rect x="52" y="10" width="1" height="50" style="fill:rgb(0, 0, 0)" />
<rect x="53" y="10" width="1" height="50" style="fill:rgb(255, 255, 255)" />
<rect x="54" y="10" width="1" height="50" style="fill:rgb(0, 0, 0)" />
<rect x="55" y="10" width="4" height="50" style="fill:rgb(255, 255, 255)" />
<rect x="59" y="10" width="1" height="50" style="fill:rgb(0, 0, 0)" />
<rect x="60" y="10" width="2" height="50" style="fill:rgb(255, 255, 255)" />
<rect x="62" y="10" width="2" height="50" style="fill:rgb(0, 0, 0)" />
<rect x="64" y="10" width="1" height="50" style="fill:rgb(255, 255, 255)" />
<rect x="65" y="10" width="1" height="50" style="fill:rgb(0, 0, 0)" />
<rect x="66" y="10" width="4" height="50" style="fill:rgb(255, 255, 255)" />
<rect x="70" y="10" width="2" height="50" style="fill:rgb(0, 0, 0)" />
<rect x="72" y="10" width="1" height="50" style="fill:rgb(255, 255, 255)" />
<rect x="73" y="10" width="1" height="50" style="fill:rgb(0, 0, 0)" />
<rect x="74" y="10" width="2" height="50" style="fill:rgb(255, 255, 255)" />
<rect x="76" y="10" width="1" height="50" style="fill:rgb(0, 0, 0)" />
<rect x="77" y="10" width="3" height="50" style="fill:rgb(255, 255, 255)" />
<rect x="80" y="10" width="4" height="50" style="fill:rgb(0, 0, 0)" />
<rect x="84" y="10" width="1" height="50" style="fill:rgb(255, 255, 255)" />
<rect x="85" y="10" width="1" height="50" style="fill:rgb(0, 0, 0)" />
<rect x="86" y="10" width="1" height="50" style="fill:rgb(255, 255, 255)" />
<rect x="87" y="10" width="2" height="50" style="fill:rgb(0, 0, 0)" />
<rect x="89" y="10" width="1" height="50" style="fill:rgb(255, 255, 255)" />
<rect x="90" y="10" width="2" height="50" style="fill:rgb(0, 0, 0)" />
<rect x="92" y="10" width="2" height="50" style="fill:rgb(255, 255, 255)" />
<rect x="94" y="10" width="2" height="50" style="fill:rgb(0, 0, 0)" />
<rect x="96" y="10" width="2" height="50" style="fill:rgb(255, 255, 255)" />
<rect x="98" y="10" width="1" height="50" style="fill:rgb(0, 0, 0)" />
<rect x="99" y="10" width="3" height="50" style="fill:rgb(255, 255, 255)" />
<rect x="102" y="10" width="1" height="50" style="fill:rgb(0, 0, 0)" />
<rect x="103" y="10" width="1" height="50" style="fill:rgb(255, 255, 255)" />
<rect x="104" y="10" width="2" height="50" style="fill:rgb(0, 0, 0)" />
<rect x="106" y="10" width="3" height="50" style="fill:rgb(255, 255, 255)" />
<rect x="109" y="10" width="2" height="50" style="fill:rgb(0, 0, 0)" />
<rect x="111" y="10" width="2" height="50" style="fill:rgb(255, 255, 255)" />
<rect x="113" y="10" width="1" height="50" style="fill:rgb(0, 0, 0)" />
<rect x="114" y="10" width="1" height="50" style="fill:rgb(255, 255, 255)" />
<rect x="115" y="10" width="1" height="50" style="fill:rgb(0, 0, 0)" />
<rect x="116" y="10" width="4" height="50" style="fill:rgb(255, 255, 255)" />
<rect x="120" y="10" width="1" height="50" style="fill:rgb(0, 0, 0)" />
<rect x="121" y="10" width="2" height="50" style="fill:rgb(255, 255, 255)" />
<rect x="123" y="10" width="1" height="50" style="fill:rgb(0, 0, 0)" />
<rect x="124" y="10" width="1" height="50" style="fill:rgb(255, 255, 255)" />
<rect x="125" y="10" width="2" height="50" style="fill:rgb(0, 0, 0)" />
<rect x="127" y="10" width="4" height="50" style="fill:rgb(255, 255, 255)" />
<rect x="131" y="10" width="1" height="50" style="fill:rgb(0, 0, 0)" />
<rect x="132" y="10" width="4" height="50" style="fill:rgb(255, 255, 255)" />
<rect x="136" y="10" width="1" height="50" style="fill:rgb(0, 0, 0)" />
<rect x="137" y="10" width="1" height="50" style="fill:rgb(255, 255, 255)" />
<rect x="138" y="10" width="2" height="50" style="fill:rgb(0, 0, 0)" />
<rect x="140" y="10" width="2" height="50" style="fill:rgb(255, 255, 255)" />
<rect x="142" y="10" width="2" height="50" style="fill:rgb(0, 0, 0)" />
<rect x="144" y="10" width="4" height="50" style="fill:rgb(255, 255, 255)" />
<rect x="148" y="10" width="1" height="50" style="fill:rgb(0, 0, 0)" />
<rect x="149" y="10" width="2" height="50" style="fill:rgb(255, 255, 255)" />
<rect x="151" y="10" width="1" height="50" style="fill:rgb(0, 0, 0)" />
<rect x="152" y="10" width="1" height="50" style="fill:rgb(255, 255, 255)" />
<rect x="153" y="10" width="4" height="50" style="fill:rgb(0, 0, 0)" />
<rect x="157" y="10" width="1" height="50" style="fill:rgb(255, 255, 255)" />
<rect x="158" y="10" width="2" height="50" style="fill:rgb(0, 0, 0)" />
<rect x="160" y="10" width="1" height="50" style="fill:rgb(255, 255, 255)" />
<rect x="161" y="10" width="2" height="50" style="fill:rgb(0, 0, 0)" />
<rect x="163" y="10" width="1" height="50" style="fill:rgb(255, 255, 255)" />
<rect x="164" y="10" width="2" height="50" style="fill:rgb(0, 0, 0)" />
<rect x="166" y="10" width="3" height="50" style="fill:rgb(255, 255, 255)" />
<rect x="169" y="10" width="3" height="50" style="fill:rgb(0, 0, 0)" />
<rect x="172" y="10" width="1" height="50" style="fill:rgb(255, 255, 255)" />
<rect x="173" y="10" width="1" height="50" style="fill:rgb(0, 0, 0)" />
<rect x="174" y="10" width="1" height="50" style="fill:rgb(255, 255, 255)" />
</svg>
