<?xml version="1.0" standalone="no"?>
<!DOCTYPE svg PUBLIC "-//W3C//DTD SVG 1.1//EN" "http://www.w3.org/Graphics/SVG/1.1/DTD/svg11.dtd">
<svg xmlns="http://www.w3.org/2000/svg" version="1.1" width="166" height="50">
<rect x="10" y="10" width="2" height="50" style="fill:rgb(0, 0, 0)" />
<rect x="13" y="10" width="1" height="50" style="fill:rgb(0, 0, 0)" />
<rect x="16" y="10" width="1" height="50" style="fill:rgb(0, 0, 0)" />
<rect x="21" y="10" width="2" height="50" style="fill:rgb(0, 0, 0)" />
<rect x="24" y="10" width="3" height="50" style="fill:rgb(0, 0, 0)" />
<rect x="28" y="10" width="1" height="50" style="fill:rgb(0, 0, 0)" />
<rect x="32" y="10" width="1" height="50" style="fill:rgb(0, 0, 0)" />
<rect x="35" y="10" width="4" height="50" style="fill:rgb(0, 0, 0)" />
<rect x="40" y="10" width="1" height="50" style="fill:rgb(0, 0, 0)" />
<rect x="43" y="10" width="1" height="50" style="fill:rgb(0, 0, 0)" />
<rect x="46" y="10" width="4" height="50" style="fill:rgb(0, 0, 0)" />
<rect x="52" y="10" width="1" height="50" style="fill:rgb(0, 0, 0)" />
<rect x="54" y="10" width="1" height="50" style="fill:rgb(0, 0, 0)" />
<rect x="59" y="10" width="1" height="50" style="fill:rgb(0, 0, 0)" />
<rect x="62" y="10" width="2" height="50" style="fill:rgb(0, 0, 0)" />
<rect x="65" y="10" width="1" height="50" style="fill:rgb(0, 0, 0)" />
<rect x="70" y="10" width="2" height="50" style="fill:rgb(0, 0, 0)" />
<rect x="73" y="10" width="1" height="50" style="fill:rgb(0, 0, 0)" />
<rect x="76" y="10" width="1" height="50" style="fill:rgb(0, 0, 0)" />
<rect x="80" y="10" width="4" height="50" style="fill:rgb(0, 0, 0)" />
<rect x="85" y="10" width="1" height="50" style="fill:rgb(0, 0, 0)" />
<rect x="87" y="10" width="2" height="50" style="fill:rgb(0, 0, 0)" />
<rect x="90" y="10" width="2" height="50" style="fill:rgb(0, 0, 0)" />
<rect x="94" y="10" width="2" height="50" style="fill:rgb(0, 0, 0)" />
<rect x="98" y="10" width="2" height="50" style="fill:rgb(0, 0, 0)" />
<rect x="101" y="10" width="3" height="50" style="fill:rgb(0, 0, 0)" />
<rect x="105" y="10" width="1" height="50" style="fill:rgb(0, 0, 0)" />
<rect x="109" y="10" width="1" height="50" style="fill:rgb(0, 0, 0)" />
<rect x="113" y="10" width="4" height="50" style="fill:rgb(0, 0, 0)" />
<rect x="118" y="10" width="1" height="50" style="fill:rgb(0, 0, 0)" />
<rect x="120" y="10" width="1" height="50" style="fill:rgb(0, 0, 0)" />
<rect x="123" y="10" width="1" height="50" style="fill:rgb(0, 0, 0)" />
<rect x="126" y="10" width="4" height="50" style="fill:rgb(0, 0, 0)" />
<rect x="131" y="10" width="1" height="50" style="fill:rgb(0, 0, 0)" />
<rect x="134" y="10" width="4" height="50" style="fill:rgb(0, 0, 0)" />
<rect x="139" y="10" width="1" height="50" style="fill:rgb(0, 0, 0)" />
<rect x="142" y="10" width="2" height="50" style="fill:rgb(0, 0, 0)" />
<rect x="146" y="10" width="1" height="50" style="fill:rgb(0, 0, 0)" />
<rect x="149" y="10" width="3" height="50" style="fill:rgb(0, 0, 0)" />
<rect x="153" y="10" width="2" height="50" style="fill:rgb(0, 0, 0)" />
<rect x="158" y="10" width="3" height="50" style="fill:rgb(0, 0, 0)" />
<rect x="162" y="10" width="1" height="50" style="fill:rgb(0, 0, 0)" />
<rect x="164" y="10" width="2" height="50" style="fill:rgb(0, 0, 0)" />
</svg>
