<?xml version="1.0" standalone="no"?>
<!DOCTYPE svg PUBLIC "-//W3C//DTD SVG 1.1//EN" "http://www.w3.org/Graphics/SVG/1.1/DTD/svg11.dtd">
<svg xmlns="http://www.w3.org/2000/svg" version="1.1" width="105" height="50">
<rect x="10" y="10" width="1" height="50" style="fill:rgb(0, 0, 0)" />
<rect x="12" y="10" width="1" height="50" style="fill:rgb(0, 0, 0)" />
<rect x="16" y="10" width="1" height="50" style="fill:rgb(0, 0, 0)" />
<rect x="18" y="10" width="2" height="50" style="fill:rgb(0, 0, 0)" />
<rect x="21" y="10" width="2" height="50" style="fill:rgb(0, 0, 0)" />
<rect x="24" y="10" width="3" height="50" style="fill:rgb(0, 0, 0)" />
<rect x="31" y="10" width="1" height="50" style="fill:rgb(0, 0, 0)" />
<rect x="33" y="10" width="1" height="50" style="fill:rgb(0, 0, 0)" />
<rect x="37" y="10" width="2" height="50" style="fill:rgb(0, 0, 0)" />
<rect x="40" y="10" width="1" height="50" style="fill:rgb(0, 0, 0)" />
<rect x="43" y="10" width="3" height="50" style="fill:rgb(0, 0, 0)" />
<rect x="47" y="10" width="1" height="50" style="fill:rgb(0, 0, 0)" />
<rect x="49" y="10" width="2" height="50" style="fill:rgb(0, 0, 0)" />
<rect x="53" y="10" width="2" height="50" style="fill:rgb(0, 0, 0)" />
<rect x="56" y="10" width="1" height="50" style="fill:rgb(0, 0, 0)" />
<rect x="58" y="10" width="1" height="50" style="fill:rgb(0, 0, 0)" />
<rect x="60" y="10" width="1" height="50" style="fill:rgb(0, 0, 0)" />
<rect x="62" y="10" width="1" height="50" style="fill:rgb(0, 0, 0)" />
<rect x="67" y="10" width="1" height="50" style="fill:rgb(0, 0, 0)" />
<rect x="70" y="10" width="1" height="50" style="fill:rgb(0, 0, 0)" />
<rect x="74" y="10" width="2" height="50" style="fill:rgb(0, 0, 0)" />
<rect x="77" y="10" width="2" height="50" style="fill:rgb(0, 0, 0)" />
<rect x="81" y="10" width="1" height="50" style="fill:rgb(0, 0, 0)" />
<rect x="86" y="10" width="1" height="50" style="fill:rgb(0, 0, 0)" />
<rect x="88" y="10" width="3" height="50" style="fill:rgb(0, 0, 0)" />
<rect x="93" y="10" width="1" height="50" style="fill:rgb(0, 0, 0)" />
<rect x="95" y="10" width="1" height="50" style="fill:rgb(0, 0, 0)" />
<rect x="98" y="10" width="1" height="50" style="fill:rgb(0, 0, 0)" />
<rect x="102" y="10" width="1" height="50" style="fill:rgb(0, 0, 0)" />
<rect x="104" y="10" width="1" height="50" style="fill:rgb(0, 0, 0)" />
</svg>

